<svg width="100" height="99" viewBox="0 0 100 99" fill="none" xmlns="http://www.w3.org/2000/svg">
<rect y="-0.0098877" width="100" height="99.0099" rx="13" fill="black"/>
<path d="M37.25 56.3684C39.5706 56.3684 41.7962 55.398 43.4372 53.6707C45.0781 51.9434 46 49.6007 46 47.1579C46 42.0737 44.25 39.7895 42.5 36.1053C38.748 28.21 41.716 21.1695 49.5 14C51.25 23.2105 56.5 32.0526 63.5 37.9474C70.5 43.8421 74 50.8421 74 58.2105C74 61.5972 73.3663 64.9508 72.1351 68.0797C70.9038 71.2087 69.0992 74.0517 66.8241 76.4464C64.5491 78.8412 61.8482 80.7409 58.8757 82.0369C55.9033 83.3329 52.7174 84 49.5 84C46.2826 84 43.0967 83.3329 40.1243 82.0369C37.1518 80.7409 34.4509 78.8412 32.1759 76.4464C29.9008 74.0517 28.0962 71.2087 26.865 68.0797C25.6337 64.9508 25 61.5972 25 58.2105C25 53.9626 26.5155 49.7589 28.5 47.1579C28.5 49.6007 29.4219 51.9434 31.0628 53.6707C32.7038 55.398 34.9294 56.3684 37.25 56.3684Z" fill="url(#paint0_linear_206_108)" stroke="url(#paint1_linear_206_108)" stroke-width="2" stroke-linecap="round" stroke-linejoin="round"/>
<defs>
<linearGradient id="paint0_linear_206_108" x1="49.5" y1="14" x2="49.5" y2="84" gradientUnits="userSpaceOnUse">
<stop stop-color="#FF8514"/>
<stop offset="1" stop-color="#FF0000"/>
</linearGradient>
<linearGradient id="paint1_linear_206_108" x1="49.5" y1="14" x2="49.5" y2="84" gradientUnits="userSpaceOnUse">
<stop stop-color="#FF8514"/>
<stop offset="1" stop-color="#FF0000"/>
</linearGradient>
</defs>
</svg>
